{
.appVersion = "3133";
.formatVersion = 3;
DisplayStrings = (
"/one.osf/two.osf/three.osf/four.osf/five.osf/six.osf/zero.osf/seven.osf/zero.osf/zero.osf/eight.osf/nine.osf/zero.osf 0/zero.osf",
"0 1234567890",
"Hawaiian
H AWAIIAN
PLYWOOD
Plywood
Waffles
Difficult
DIFFICULT
WAFFLES
distort
myth
cold
leg
combine
houseplant
HOUSEPLANT
Experience
EXPERIENCE",
"ABCDEFGHIJKLMNOPQRSTUVWXYZabcdefghijklmnopqrstuvwxyz0123456789/zero.osf/one.osf/two.osf/three.osf/four.osf/five.osf/six.osf/seven.osf/eight.osf/nine.osf  /_corner.leftSerif/_corner.rightSerif/LowerSerifBottomLeft/LowerSerifBottomRight/SerifBottomLeft/SerifBottomRight/SerifDownEF/SerifSpur/SerifUpLeft/SerifUpRight",
""
);
date = "2022-10-13 19:52:38 +0000";
familyName = "New Font";
fontMaster = (
{
id = m01;
metricValues = (
{
over = 16;
pos = 800;
},
{
over = 16;
pos = 700;
},
{
over = 16;
pos = 435;
},
{
over = -16;
},
{
over = -16;
pos = -200;
},
{
}
);
name = Regular;
}
);
glyphs = (
{
color = 3;
glyphname = A;
kernLeft = "0";
kernRight = "0";
lastChange = "2022-10-28 16:46:35 +0000";
layers = (
{
hints = (
{
name = _corner.leftSerif;
origin = (2,3);
type = Corner;
},
{
name = _corner.leftSerif;
origin = (0,3);
type = Corner;
},
{
name = _corner.rightSerif;
options = 1;
origin = (0,0);
type = Corner;
},
{
name = _corner.rightSerif;
options = 1;
origin = (2,0);
type = Corner;
}
);
layerId = m01;
shapes = (
{
closed = 1;
nodes = (
(105,0,l),
(352,705,l),
(306,705,l),
(59,0,l)
);
},
{
closed = 1;
nodes = (
(440,224,l),
(440,267,l),
(180,267,l),
(180,224,l)
);
},
{
closed = 1;
nodes = (
(590,0,l),
(352,705,l),
(311,597,l),
(500,0,l)
);
},
{
closed = 1;
nodes = (
(352,705,l),
(335,713,o),
(322,713,o),
(306,721,c),
(297,721,o),
(297,713,o),
(306,713,c),
(306,705,l)
);
}
);
width = 630;
}
);
unicode = 65;
},
{
color = 3;
glyphname = B;
kernLeft = "0";
kernRight = "0";
lastChange = "2022-10-28 16:33:57 +0000";
layers = (
{
layerId = m01;
shapes = (
{
closed = 1;
nodes = (
(416,0,l),
(523,8,o),
(605,91,o),
(605,189,cs),
(605,272,o),
(556,338,o),
(474,362,c),
(523,396,o),
(564,453,o),
(564,519,cs),
(564,609,o),
(483,692,o),
(383,700,c),
(96,700,l),
(96,0,l)
);
},
{
closed = 1;
nodes = (
(202,42,o),
(193,58,o),
(193,115,cs),
(193,296,ls),
(193,335,o),
(194,333,o),
(227,333,cs),
(350,333,ls),
(432,333,o),
(489,271,o),
(502,205,cs),
(513,148,o),
(499,42,o),
(416,42,cs),
(277,42,ls)
);
},
{
closed = 1;
nodes = (
(194,375,o),
(193,370,o),
(193,412,cs),
(193,577,ls),
(193,642,o),
(202,658,o),
(277,658,cs),
(334,658,ls),
(432,658,o),
(470,601,o),
(470,527,cs),
(470,468,o),
(450,375,o),
(383,375,cs),
(334,375,l),
(227,375,ls)
);
},
{
pos = (96,0);
ref = SerifBottomLeft;
},
{
angle = 180;
pos = (96,700);
ref = SerifBottomRight;
}
);
width = 605;
}
);
unicode = 66;
},
{
color = 3;
glyphname = C;
kernLeft = "0";
kernRight = "0";
lastChange = "2022-10-28 16:47:01 +0000";
layers = (
{
layerId = m01;
shapes = (
{
closed = 1;
nodes = (
(482,-15,o),
(552,92,o),
(565,129,c),
(540,139,l),
(517,92,o),
(444,27,o),
(337,27,cs),
(217,27,o),
(122,152,o),
(122,331,cs),
(122,508,o),
(224,673,o),
(336,673,cs),
(434,673,o),
(474,627,o),
(486,614,cs),
(507,591,o),
(516,559,o),
(516,522,c),
(547,522,l),
(532,567,o),
(522,667,o),
(522,700,c),
(501,700,l),
(501,671,o),
(503,665,o),
(491,665,cs),
(471,665,o),
(419,715,o),
(336,715,cs),
(182,715,o),
(0,543,o),
(0,342,cs),
(0,139,o),
(148,-15,o),
(337,-15,cs)
);
}
);
width = 565;
}
);
unicode = 67;
},
{
color = 3;
glyphname = D;
lastChange = "2022-10-28 16:41:27 +0000";
layers = (
{
layerId = m01;
shapes = (
{
closed = 1;
nodes = (
(192,0,l),
(361,0,l),
(482,0,o),
(651,158,o),
(651,351,c),
(651,543,o),
(507,700,o),
(337,700,c),
(302,700,l),
(192,700,l),
(156,700,l),
(96,700,l),
(96,0,l)
);
},
{
closed = 1;
nodes = (
(204,37,o),
(192,61,o),
(192,122,c),
(192,592,l),
(192,652,o),
(204,665,o),
(277,665,c),
(302,665,l),
(458,665,o),
(531,519,o),
(543,375,c),
(544,363,o),
(544,352,o),
(544,341,cs),
(544,165,o),
(450,37,o),
(326,37,c),
(277,37,l)
);
},
{
angle = 180;
pos = (96,700);
ref = SerifBottomRight;
},
{
pos = (96,0);
ref = SerifBottomLeft;
}
);
width = 651;
}
);
unicode = 68;
},
{
color = 3;
glyphname = E;
lastChange = "2022-10-28 16:47:01 +0000";
layers = (
{
layerId = m01;
shapes = (
{
closed = 1;
nodes = (
(465,0,l),
(465,42,l),
(277,42,ls),
(206,42,o),
(193,63,o),
(193,121,cs),
(193,292,ls),
(193,332,o),
(193,332,o),
(233,332,cs),
(339,332,ls),
(429,332,o),
(436,298,o),
(438,248,c),
(458,248,l),
(454,298,o),
(453,307,o),
(453,332,cs),
(453,374,ls),
(453,399,o),
(454,409,o),
(458,457,c),
(438,457,l),
(436,409,o),
(429,374,o),
(339,374,cs),
(233,374,ls),
(193,374,o),
(193,374,o),
(193,415,cs),
(193,577,ls),
(193,636,o),
(206,657,o),
(277,657,cs),
(424,657,ls),
(515,657,o),
(523,612,o),
(524,548,c),
(544,548,l),
(540,549,o),
(539,623,o),
(539,657,cs),
(539,699,l),
(96,699,l),
(96,0,l)
);
},
{
pos = (465,0);
ref = SerifUpRight;
},
{
pos = (96,0);
ref = SerifBottomLeft;
},
{
angle = 180;
pos = (96,699);
ref = SerifBottomRight;
}
);
width = 584;
}
);
unicode = 69;
},
{
color = 3;
glyphname = F;
lastChange = "2022-10-28 16:45:39 +0000";
layers = (
{
layerId = m01;
shapes = (
{
pos = (426,700);
ref = SerifDownEF;
},
{
pos = (96,0);
ref = SerifBottomLeft;
},
{
angle = 180;
pos = (96,700);
ref = SerifBottomRight;
},
{
pos = (190,0);
ref = SerifBottomRight;
},
{
closed = 1;
nodes = (
(190,583,l),
(190,641,o),
(203,658,o),
(275,658,cs),
(426,658,l),
(426,700,l),
(96,700,l),
(96,103,l),
(96,0,l),
(190,0,l),
(190,292,ls),
(190,332,o),
(190,332,o),
(230,332,cs),
(336,332,ls),
(426,332,o),
(433,298,o),
(435,248,c),
(455,248,l),
(451,298,o),
(450,307,o),
(450,332,cs),
(450,374,ls),
(450,399,o),
(451,409,o),
(455,457,c),
(435,457,l),
(433,409,o),
(426,374,o),
(336,374,cs),
(230,374,ls),
(190,374,o),
(190,374,o),
(190,415,cs)
);
}
);
width = 556;
}
);
unicode = 70;
},
{
color = 3;
glyphname = G;
kernLeft = "0";
kernRight = "0";
lastChange = "2022-10-28 16:33:57 +0000";
layers = (
{
layerId = m01;
shapes = (
{
closed = 1;
nodes = (
(583,265,l),
(381,265,l),
(381,243,l),
(451,243,o),
(452,225,o),
(452,189,cs),
(452,93,ls),
(452,69,o),
(427,26,o),
(346,26,cs),
(202,26,o),
(111,155,o),
(111,330,cs),
(111,469,o),
(177,672,o),
(333,672,cs),
(431,672,o),
(471,627,o),
(483,614,cs),
(505,590,o),
(513,559,o),
(513,522,c),
(544,522,l),
(529,567,o),
(519,667,o),
(519,700,c),
(498,700,l),
(498,677,o),
(499,665,o),
(487,665,cs),
(476,665,o),
(416,715,o),
(333,715,cs),
(159,715,o),
(0,545,o),
(0,341,cs),
(0,142,o),
(153,-16,o),
(330,-16,cs),
(463,-16,o),
(478,18,o),
(513,18,cs),
(521,18,o),
(532,16,o),
(548,11,c),
(548,200,ls),
(548,219,o),
(548,243,o),
(583,243,c)
);
}
);
width = 586;
}
);
unicode = 71;
},
{
color = 3;
glyphname = H;
lastChange = "2022-10-28 16:36:11 +0000";
layers = (
{
layerId = m01;
shapes = (
{
closed = 1;
nodes = (
(193,0,l),
(193,301,l),
(193,344,o),
(193,344,o),
(229,344,cs),
(530,344,ls),
(566,344,o),
(566,344,o),
(566,301,cs),
(566,0,l),
(663,0,l),
(663,700,l),
(566,700,l),
(566,422,l),
(566,386,o),
(566,386,o),
(530,386,cs),
(229,386,ls),
(193,386,o),
(193,386,o),
(193,422,c),
(193,700,l),
(96,700,l),
(96,0,l)
);
},
{
pos = (96,0);
ref = SerifBottomLeft;
},
{
pos = (663,0);
ref = SerifBottomRight;
},
{
pos = (193,0);
ref = SerifBottomRight;
},
{
pos = (566,0);
ref = SerifBottomLeft;
},
{
angle = 180;
pos = (96,700);
ref = SerifBottomRight;
},
{
angle = 180;
pos = (566,700);
ref = SerifBottomRight;
},
{
angle = 180;
pos = (193,700);
ref = SerifBottomLeft;
},
{
angle = 180;
pos = (663,700);
ref = SerifBottomLeft;
}
);
width = 759;
}
);
unicode = 72;
},
{
color = 3;
glyphname = I;
lastChange = "2022-10-28 16:46:57 +0000";
layers = (
{
layerId = m01;
shapes = (
{
closed = 1;
nodes = (
(206,700,l),
(108,700,l),
(108,0,l),
(206,0,l)
);
},
{
pos = (206,0);
ref = SerifBottomRight;
},
{
angle = 180;
pos = (108,700);
ref = SerifBottomRight;
},
{
pos = (108,0);
ref = SerifBottomLeft;
},
{
angle = 180;
pos = (206,700);
ref = SerifBottomLeft;
}
);
width = 290;
}
);
unicode = 73;
},
{
color = 3;
glyphname = J;
kernLeft = "0";
kernRight = "0";
lastChange = "2022-10-28 16:33:57 +0000";
layers = (
{
layerId = m01;
shapes = (
{
closed = 1;
nodes = (
(285,700,l),
(188,700,l),
(188,102,ls),
(188,-33,o),
(154,-165,o),
(89,-166,cs),
(68,-166,o),
(66,-167,o),
(11,-149,c),
(0,-171,l),
(2,-169,o),
(38,-200,o),
(89,-200,cs),
(248,-200,o),
(285,-17,o),
(285,102,cs)
);
},
{
angle = 180;
pos = (285,700);
ref = SerifBottomLeft;
},
{
angle = 180;
pos = (188,700);
ref = SerifBottomRight;
}
);
width = 381;
}
);
unicode = 74;
},
{
color = 3;
glyphname = K;
kernLeft = "0";
kernRight = "0";
lastChange = "2022-10-28 16:33:57 +0000";
layers = (
{
annotations = (
{
pos = (85,268);
text = "watch width here ";
type = Text;
},
{
pos = (97,294);
type = Arrow;
}
);
hints = (
{
name = _corner.leftSerif;
origin = (0,9);
type = Corner;
},
{
name = _corner.rightSerif;
options = 1;
origin = (0,10);
type = Corner;
},
{
name = _corner.rightSerif;
options = 1;
origin = (0,7);
scale = (0.7,1);
type = Corner;
}
);
layerId = m01;
shapes = (
{
closed = 1;
nodes = (
(193,0,l),
(193,225,l),
(264,320,l),
(383,166,ls),
(472,50,o),
(472,50,o),
(489,0,c),
(632,0,l),
(330,389,l),
(576,700,l),
(522,700,l),
(193,293,l),
(193,700,l),
(96,700,l),
(96,0,l)
);
},
{
pos = (193,0);
ref = SerifBottomRight;
},
{
angle = 180;
pos = (96,700);
ref = SerifBottomRight;
},
{
angle = 180;
pos = (193,700);
ref = SerifBottomLeft;
},
{
pos = (96,0);
ref = SerifBottomLeft;
}
);
width = 701;
}
);
unicode = 75;
},
{
color = 3;
glyphname = L;
lastChange = "2022-10-28 16:46:33 +0000";
layers = (
{
layerId = m01;
shapes = (
{
closed = 1;
nodes = (
(465,0,l),
(465,42,l),
(276,42,ls),
(205,42,o),
(193,54,o),
(193,113,c),
(193,700,l),
(96,700,l),
(96,0,l)
);
},
{
pos = (96,0);
ref = SerifBottomLeft;
},
{
pos = (465,0);
ref = SerifUpRight;
},
{
angle = 180;
pos = (96,700);
ref = SerifBottomRight;
},
{
angle = 180;
pos = (193,700);
ref = SerifBottomLeft;
}
);
width = 574;
}
);
unicode = 76;
},
{
color = 3;
glyphname = M;
kernLeft = "0";
kernRight = "0";
lastChange = "2022-10-28 16:33:57 +0000";
layers = (
{
layerId = m01;
shapes = (
{
closed = 1;
nodes = (
(445,-2,l),
(680,583,l),
(680,0,l),
(776,0,l),
(776,700,l),
(669,700,l),
(445,115,l),
(205,700,l),
(96,700,l),
(96,0,l),
(138,0,l),
(138,603,l),
(392,-2,l)
);
},
{
pos = (96,0);
ref = SerifBottomLeft;
},
{
pos = (138,0);
ref = SerifBottomRight;
},
{
pos = (680,0);
ref = SerifBottomLeft;
},
{
angle = 180;
pos = (96,700);
ref = SerifBottomRight;
},
{
pos = (766,0);
ref = SerifBottomRight;
},
{
angle = 180;
pos = (766,700);
ref = SerifBottomLeft;
}
);
width = 862;
}
);
unicode = 77;
},
{
color = 3;
glyphname = N;
lastChange = "2022-10-28 16:47:00 +0000";
layers = (
{
hints = (
{
name = _corner.rightSerif;
options = 1;
origin = (0,6);
scale = (0.68,1);
type = Corner;
}
);
layerId = m01;
shapes = (
{
closed = 1;
nodes = (
(581,0,l),
(622,0,l),
(622,700,l),
(581,700,l),
(581,157,l),
(186,700,l),
(71,700,l),
(96,666,l),
(96,0,l),
(137,0,l),
(137,610,l)
);
},
{
pos = (96,0);
ref = SerifBottomLeft;
},
{
pos = (137,0);
ref = SerifBottomRight;
},
{
angle = 180;
pos = (622,700);
ref = SerifBottomLeft;
},
{
angle = 180;
pos = (581,700);
ref = SerifBottomRight;
}
);
width = 718;
}
);
unicode = 78;
},
{
color = 3;
glyphname = O;
kernLeft = Y;
kernRight = W;
lastChange = "2022-10-28 16:46:27 +0000";
layers = (
{
layerId = m01;
shapes = (
{
attr = {
fill = 1;
};
closed = 1;
nodes = (
(504,-16,o),
(648,153,o),
(648,356,c),
(648,562,o),
(504,716,o),
(324,716,cs),
(144,716,o),
(0,548,o),
(0,356,c),
(0,139,o),
(144,-16,o),
(324,-16,cs)
);
},
{
attr = {
fill = 1;
};
closed = 1;
nodes = (
(203,10,o),
(118,153,o),
(107,345,cs),
(96,525,o),
(169,667,o),
(299,679,cs),
(445,691,o),
(530,548,o),
(541,367,cs),
(552,189,o),
(479,34,o),
(349,23,cs)
);
}
);
width = 648;
}
);
unicode = 79;
},
{
color = 3;
glyphname = P;
lastChange = "2022-10-28 16:46:53 +0000";
layers = (
{
layerId = m01;
shapes = (
{
closed = 1;
nodes = (
(96,0,l),
(193,0,l),
(193,264,l),
(193,288,o),
(205,296,o),
(228,296,c),
(325,296,ls),
(516,296,o),
(567,398,o),
(567,495,cs),
(567,627,o),
(482,700,o),
(386,700,c),
(96,700,l)
);
},
{
closed = 1;
nodes = (
(205,338,o),
(196,348,o),
(196,361,c),
(196,631,l),
(196,653,o),
(202,658,o),
(228,658,c),
(337,658,l),
(435,658,o),
(480,591,o),
(482,520,cs),
(485,431,o),
(444,374,o),
(386,351,cs),
(366,343,o),
(346,338,o),
(320,338,c),
(284,338,o),
(257,338,o),
(228,338,c)
);
},
{
pos = (96,0);
ref = SerifBottomLeft;
},
{
pos = (193,0);
ref = SerifBottomRight;
},
{
angle = 180;
pos = (96,700);
ref = SerifBottomRight;
}
);
width = 567;
}
);
unicode = 80;
},
{
color = 3;
glyphname = Q;
lastChange = "2022-10-28 16:33:57 +0000";
layers = (
{
layerId = m01;
shapes = (
{
closed = 1;
nodes = (
(196,22,o),
(119,161,o),
(108,345,cs),
(107,357,o),
(107,369,o),
(107,382,cs),
(107,542,o),
(184,680,o),
(317,680,cs),
(449,680,o),
(527,540,o),
(538,369,cs),
(539,355,o),
(540,341,o),
(540,327,cs),
(540,158,o),
(462,22,o),
(328,22,cs)
);
},
{
closed = 0;
nodes = (
(-81,499,l)
);
},
{
closed = 1;
nodes = (
(552,52,o),
(646,185,o),
(646,357,c),
(658,561,o),
(503,716,o),
(324,716,cs),
(143,716,o),
(1,548,o),
(1,357,c),
(-12,153,o),
(111,9,o),
(278,-14,c),
(233,-33,o),
(197,-52,o),
(188,-60,o),
(185,-66,o),
(185,-70,qs),
(184,-87,o),
(203,-89,qs),
(215,-89,o),
(231,-77,o),
(249,-61,o),
(271,-48,o),
(288,-49,qs),
(313,-51,o),
(364,-82,o),
(418,-117,o),
(510,-151,o),
(548,-153,qs),
(572,-154,o),
(615,-139,o),
(638,-124,o),
(664,-84,o),
(667,-63,qs),
(668,-55,o),
(668,-42,o),
(668,-34,q),
(651,-33,l),
(635,-58,o),
(603,-80,o),
(575,-83,qs),
(540,-87,o),
(499,-81,o),
(443,-63,o),
(390,-30,o),
(382,-22,o),
(391,-13,o),
(415,0,q)
);
}
);
width = 668;
}
);
unicode = 81;
},
{
color = 3;
glyphname = R;
kernLeft = "0";
kernRight = "0";
lastChange = "2022-10-28 16:46:54 +0000";
layers = (
{
layerId = m01;
shapes = (
{
closed = 1;
nodes = (
(96,0,l),
(193,0,l),
(193,320,ls),
(193,328,o),
(198,331,o),
(210,331,cs),
(264,331,ls),
(361,331,o),
(507,17,o),
(507,0,c),
(541,0,o),
(553,0,o),
(576,0,cs),
(605,0,o),
(639,0,o),
(674,-9,c),
(674,12,l),
(629,18,o),
(606,40,o),
(596,55,cs),
(541,138,o),
(476,305,o),
(397,351,c),
(488,352,o),
(565,436,o),
(565,518,cs),
(565,649,o),
(461,700,o),
(383,700,cs),
(96,700,l)
);
},
{
closed = 1;
nodes = (
(193,373,o),
(193,373,o),
(193,399,c),
(193,591,l),
(193,660,o),
(206,664,o),
(275,664,cs),
(336,664,ls),
(419,664,o),
(481,614,o),
(481,543,cs),
(481,482,o),
(445,410,o),
(373,384,cs),
(336,373,o),
(299,373,o),
(299,373,c),
(227,373,ls)
);
},
{
pos = (96,0);
ref = SerifBottomLeft;
},
{
pos = (193,0);
ref = SerifBottomRight;
},
{
angle = 180;
pos = (96,700);
ref = SerifBottomRight;
}
);
width = 701;
}
);
tags = (
"Clean up"
);
unicode = 82;
},
{
color = 3;
glyphname = S;
kernLeft = "0";
kernRight = "0";
lastChange = "2022-10-28 16:46:28 +0000";
layers = (
{
layerId = m01;
shapes = (
{
closed = 1;
nodes = (
(358,628,o),
(323,674,o),
(256,674,cs),
(164,674,o),
(113,639,o),
(113,523,cs),
(113,478,o),
(163,425,o),
(203,407,cs),
(253,382,o),
(344,336,o),
(372,322,cs),
(427,295,o),
(473,256,o),
(473,174,cs),
(473,113,o),
(431,44,o),
(375,11,cs),
(345,-7,o),
(301,-16,o),
(252,-16,cs),
(188,-16,o),
(140,-3,o),
(78,28,cs),
(65,36,o),
(45,45,o),
(14,76,c),
(14,102,o),
(16,217,o),
(0,219,c),
(31,219,l),
(42,161,o),
(45,124,o),
(62,110,cs),
(79,93,o),
(147,28,o),
(225,28,cs),
(273,28,o),
(315,49,o),
(339,71,cs),
(363,91,o),
(371,111,o),
(371,148,cs),
(371,154,o),
(370,161,o),
(370,169,cs),
(369,189,o),
(355,226,o),
(306,248,cs),
(143,323,ls),
(129,330,o),
(81,359,o),
(59,390,cs),
(25,443,o),
(28,488,o),
(28,511,cs),
(28,630,o),
(128,716,o),
(255,716,cs),
(345,716,o),
(386,669,o),
(426,643,c),
(426,633,o),
(426,614,o),
(426,592,cs),
(426,551,o),
(427,502,o),
(437,501,c),
(406,501,l),
(395,560,o),
(394,593,o),
(378,608,cs)
);
}
);
width = 473;
}
);
unicode = 83;
},
{
color = 3;
glyphname = T;
lastChange = "2022-10-28 16:46:38 +0000";
layers = (
{
layerId = m01;
shapes = (
{
closed = 1;
nodes = (
(594,733,l),
(582,707,o),
(587,700,o),
(484,700,cs),
(356,700,l),
(264,700,l),
(136,700,ls),
(33,700,o),
(38,707,o),
(26,733,c),
(17,733,l),
(29,708,o),
(15,589,o),
(0,550,c),
(11,550,l),
(43,661,o),
(42,661,o),
(136,661,cs),
(239,661,ls),
(264,661,o),
(263,638,o),
(264,624,c),
(264,119,ls),
(264,30,o),
(230,12,o),
(182,11,c),
(182,0,ls),
(182,4,o),
(239,6,o),
(264,6,cs),
(356,6,ls),
(381,6,o),
(438,4,o),
(438,0,cs),
(438,11,l),
(390,12,o),
(356,30,o),
(356,119,cs),
(356,624,l),
(357,638,o),
(356,661,o),
(381,661,cs),
(484,661,ls),
(578,661,o),
(577,661,o),
(609,550,c),
(620,550,l),
(605,589,o),
(591,708,o),
(603,733,c)
);
}
);
width = 620;
}
);
unicode = 84;
},
{
color = 3;
glyphname = U;
lastChange = "2022-10-28 16:46:28 +0000";
layers = (
{
layerId = m01;
shapes = (
{
closed = 1;
nodes = (
(628,-16,o),
(635,192,o),
(635,229,cs),
(635,700,l),
(590,700,l),
(590,270,ls),
(590,115,o),
(528,40,o),
(386,40,cs),
(263,40,o),
(190,100,o),
(190,253,cs),
(190,700,l),
(96,700,l),
(95,678,o),
(96,309,o),
(96,223,cs),
(96,109,o),
(141,-16,o),
(385,-16,cs)
);
},
{
angle = 180;
pos = (190,700);
ref = SerifBottomLeft;
},
{
angle = 180;
pos = (590,700);
ref = SerifBottomRight;
},
{
angle = 180;
pos = (96,700);
ref = SerifBottomRight;
},
{
angle = 180;
pos = (635,700);
ref = SerifBottomLeft;
}
);
width = 731;
}
);
unicode = 85;
},
{
color = 3;
glyphname = V;
kernLeft = "0";
kernRight = "0";
lastChange = "2022-10-28 16:33:57 +0000";
layers = (
{
hints = (
{
name = _corner.rightSerif;
options = 1;
origin = (0,0);
type = Corner;
},
{
name = _corner.leftSerif;
origin = (0,3);
type = Corner;
},
{
name = _corner.rightSerif;
options = 1;
origin = (1,0);
type = Corner;
},
{
name = _corner.leftSerif;
origin = (1,3);
type = Corner;
}
);
layerId = m01;
shapes = (
{
closed = 1;
nodes = (
(98,700,l),
(351,-15,l),
(414,83,l),
(211,700,l)
);
},
{
closed = 1;
nodes = (
(601,700,l),
(351,-15,l),
(395,-15,l),
(648,700,l)
);
}
);
width = 410;
}
);
unicode = 86;
},
{
color = 3;
glyphname = W;
kernLeft = "0";
kernRight = "0";
lastChange = "2022-10-28 16:44:30 +0000";
layers = (
{
hints = (
{
name = _corner.leftSerif;
origin = (0,8);
scale = (0.87,1);
type = Corner;
},
{
name = _corner.rightSerif;
options = 1;
origin = (0,5);
type = Corner;
},
{
name = _corner.leftSerif;
origin = (0,4);
scale = (0.85,1);
type = Corner;
},
{
name = _corner.rightSerif;
options = 1;
origin = (0,22);
scale = (0.87,1);
type = Corner;
}
);
layerId = m01;
shapes = (
{
closed = 1;
nodes = (
(400,0,l),
(512,307,l),
(615,0,l),
(680,0,l),
(929,700,l),
(884,700,l),
(676,105,l),
(561,454,l),
(649,700,l),
(617,700,l),
(573,700,ls),
(551,700,o),
(527,700,o),
(506,700,cs),
(469,700,l),
(380,700,ls),
(360,700,o),
(322,699,o),
(292,699,cs),
(256,699,o),
(213,700,o),
(188,700,cs),
(86,700,l),
(335,0,l)
);
},
{
closed = 1;
nodes = (
(208,678,o),
(228,687,o),
(292,687,cs),
(343,687,o),
(377,678,o),
(405,598,cs),
(487,362,l),
(396,105,l),
(235,597,ls)
);
},
{
closed = 1;
nodes = (
(494,662,o),
(503,681,o),
(540,685,c),
(578,681,o),
(590,662,o),
(568,598,cs),
(540,518,l),
(515,597,ls)
);
}
);
width = 1005;
}
);
unicode = 87;
},
{
color = 3;
glyphname = X;
kernLeft = "0";
kernRight = "0";
lastChange = "2022-10-28 16:46:52 +0000";
layers = (
{
hints = (
{
name = _corner.leftSerif;
origin = (0,2);
type = Corner;
},
{
name = _corner.rightSerif;
options = 1;
origin = (0,3);
scale = (0.6,1);
type = Corner;
},
{
name = _corner.rightSerif;
options = 1;
origin = (0,0);
type = Corner;
},
{
name = _corner.leftSerif;
origin = (0,11);
scale = (0.8,1);
type = Corner;
},
{
name = _corner.rightSerif;
options = 1;
origin = (0,6);
type = Corner;
},
{
name = _corner.leftSerif;
origin = (0,5);
type = Corner;
},
{
name = _corner.leftSerif;
origin = (0,8);
type = Corner;
},
{
name = _corner.rightSerif;
options = 1;
origin = (0,9);
scale = (0.7,1);
type = Corner;
}
);
layerId = m01;
shapes = (
{
closed = 1;
nodes = (
(131,0,l),
(356,323,l),
(585,0,l),
(705,0,l),
(427,388,l),
(642,699,l),
(593,700,l),
(396,419,l),
(189,700,l),
(69,700,l),
(325,351,l),
(81,0,l)
);
}
);
width = 764;
}
);
unicode = 88;
},
{
color = 3;
glyphname = Y;
kernLeft = "0";
kernRight = "100";
lastChange = "2022-10-28 16:44:18 +0000";
layers = (
{
hints = (
{
name = _corner.leftSerif;
origin = (0,3);
scale = (0.73,1);
type = Corner;
},
{
name = _corner.rightSerif;
options = 1;
origin = (0,4);
type = Corner;
},
{
name = _corner.leftSerif;
origin = (0,6);
type = Corner;
},
{
name = _corner.rightSerif;
options = 1;
origin = (0,7);
scale = (0.72,1);
type = Corner;
}
);
layerId = m01;
shapes = (
{
closed = 1;
nodes = (
(290,0,l),
(387,0,l),
(387,312,l),
(596,700,l),
(549,700,l),
(358,361,l),
(168,700,l),
(71,700,l),
(290,312,l)
);
},
{
pos = (387,0);
ref = SerifBottomRight;
},
{
pos = (290,0);
ref = SerifBottomLeft;
}
);
width = 662;
}
);
unicode = 89;
},
{
color = 3;
glyphname = Z;
lastChange = "2022-10-28 16:33:57 +0000";
layers = (
{
layerId = m01;
shapes = (
{
closed = 1;
nodes = (
(144,661,l),
(28,661,l)
);
},
{
closed = 1;
nodes = (
(28,658,l),
(503,658,l),
(503,700,l),
(28,700,l)
);
},
{
closed = 1;
nodes = (
(0,-1,l),
(100,-1,l),
(517,675,l),
(517,699,l),
(417,699,l),
(0,23,l)
);
},
{
closed = 1;
nodes = (
(422,38,l),
(536,38,l)
);
},
{
closed = 1;
nodes = (
(62,-1,l),
(536,-1,l),
(536,42,l),
(62,42,l)
);
},
{
angle = 180;
pos = (120,700);
ref = SerifUpRight;
},
{
pos = (445,0);
ref = SerifUpRight;
}
);
width = 554;
}
);
unicode = 90;
},
{
color = 3;
glyphname = a;
lastChange = "2022-10-28 16:46:23 +0000";
layers = (
{
annotations = (
{
pos = (306.034,170.207);
type = Text;
}
);
layerId = m01;
shapes = (
{
closed = 1;
nodes = (
(227,0,l),
(305,0,l),
(305,324,ls),
(305,381,o),
(288,403,o),
(254,427,cs),
(237,439,o),
(204,450,o),
(162,449,cs),
(105,447,o),
(36,406,o),
(6,360,cs),
(-5,343,o),
(75,331,o),
(75,348,cs),
(75,375,o),
(106,412,o),
(162,412,cs),
(216,412,o),
(227,381,o),
(227,338,cs),
(227,251,l),
(126,230,o),
(42,189,o),
(19,150,cs),
(1,118,o),
(-5,65,o),
(22,32,cs),
(43,6,o),
(88,-2,o),
(104,-4,cs),
(146,-8,o),
(197,0,o),
(227,30,c)
);
},
{
closed = 1;
nodes = (
(187,26,o),
(151,30,o),
(113,42,cs),
(95,48,o),
(78,66,o),
(75,91,cs),
(72,128,o),
(84,144,o),
(94,156,cs),
(122,190,o),
(183,200,o),
(227,214,c),
(227,61,l)
);
},
{
pos = (305,0);
ref = LowerSerifBottomRight;
},
{
closed = 1;
nodes = (
(58,302,o),
(75,319,o),
(75,340,cs),
(75,360,o),
(58,377,o),
(38,377,cs),
(17,377,o),
(0,360,o),
(0,340,cs),
(0,319,o),
(17,302,o),
(38,302,cs)
);
}
);
width = 381;
}
);
unicode = 97;
},
{
color = 3;
glyphname = b;
kernLeft = "0";
lastChange = "2022-10-28 16:46:11 +0000";
layers = (
{
layerId = m01;
shapes = (
{
closed = 1;
nodes = (
(390,155,o),
(382,114,o),
(368,84,cs),
(344,34,o),
(314,8,o),
(269,9,cs),
(229,10,o),
(189,38,o),
(176,73,c),
(179,358,l),
(179,409,o),
(237,424,o),
(290,420,cs),
(348,414,o),
(379,371,o),
(390,305,cs),
(394,279,o),
(398,232,o),
(395,200,cs)
);
},
{
closed = 1;
nodes = (
(182,620,l),
(182,765,l),
(182,771,o),
(178,771,o),
(172,771,c),
(111,758,o),
(116,758,o),
(48,758,c),
(48,741,l),
(104,741,o),
(104,733,o),
(104,697,c),
(104,620,l)
);
},
{
closed = 1;
nodes = (
(104,630,l),
(103,83,l),
(103,23,l),
(0,23,l),
(0,0,l),
(6,2,o),
(14,3,o),
(23,2,cs),
(66,-3,o),
(146,-18,o),
(165,-20,c),
(165,-20,o),
(175,2,o),
(175,22,c),
(188,5,o),
(226,-16,o),
(271,-16,cs),
(330,-16,o),
(388,1,o),
(429,54,cs),
(459,92,o),
(478,142,o),
(481,201,cs),
(482,231,o),
(473,282,o),
(463,309,cs),
(432,391,o),
(358,452,o),
(271,452,cs),
(238,452,o),
(210,444,o),
(182,430,c),
(182,630,l)
);
}
);
width = 481;
}
);
unicode = 98;
},
{
color = 3;
glyphname = c;
lastChange = "2022-10-28 16:46:48 +0000";
layers = (
{
layerId = m01;
shapes = (
{
closed = 1;
nodes = (
(312,-16,o),
(359,26,o),
(390,56,c),
(376,72,l),
(354,56,o),
(323,25,o),
(260,20,cs),
(230,17,o),
(191,24,o),
(166,38,cs),
(147,50,o),
(135,64,o),
(120,89,cs),
(107,111,o),
(99,141,o),
(97,179,cs),
(95,206,o),
(95,233,o),
(95,233,c),
(96,287,o),
(109,346,o),
(139,370,cs),
(167,396,o),
(189,405,o),
(223,405,cs),
(258,405,o),
(285,398,o),
(289,358,cs),
(293,328,o),
(366,374,o),
(362,387,cs),
(353,411,o),
(261,435,o),
(236,435,cs),
(97,435,o),
(0,323,o),
(0,204,cs),
(0,168,o),
(9,136,o),
(22,104,cs),
(34,75,o),
(57,50,o),
(79,31,cs),
(120,-1,o),
(173,-17,o),
(236,-16,cs)
);
},
{
closed = 1;
nodes = (
(353,309,o),
(371,332,o),
(371,358,cs),
(371,383,o),
(353,405,o),
(330,405,cs),
(308,405,o),
(289,383,o),
(289,358,cs),
(289,332,o),
(308,309,o),
(330,309,cs)
);
}
);
width = 390;
}
);
unicode = 99;
},
{
color = 3;
glyphname = d;
kernLeft = "0";
lastChange = "2022-10-28 16:46:03 +0000";
layers = (
{
layerId = m01;
shapes = (
{
closed = 1;
nodes = (
(255,-16,o),
(293,4,o),
(306,21,c),
(306,1,o),
(316,-21,o),
(316,-21,c),
(335,-19,o),
(415,-4,o),
(458,1,cs),
(467,2,o),
(475,1,o),
(481,-1,c),
(481,22,l),
(424,22,o),
(386,23,o),
(378,83,c),
(377,755,l),
(377,761,o),
(373,761,o),
(367,761,c),
(306,748,o),
(311,748,o),
(243,748,c),
(243,731,l),
(299,731,o),
(299,723,o),
(299,687,cs),
(302,430,l),
(274,444,o),
(243,452,o),
(210,452,cs),
(123,452,o),
(49,391,o),
(18,309,cs),
(8,282,o),
(-1,231,o),
(0,201,cs),
(3,142,o),
(22,92,o),
(52,54,cs),
(93,1,o),
(151,-16,o),
(210,-16,cs)
);
},
{
closed = 1;
nodes = (
(83,232,o),
(87,279,o),
(91,305,cs),
(102,371,o),
(133,414,o),
(191,420,cs),
(244,424,o),
(302,409,o),
(302,358,c),
(305,73,l),
(292,38,o),
(252,10,o),
(212,9,cs),
(167,8,o),
(137,34,o),
(113,84,cs),
(99,114,o),
(91,155,o),
(86,200,cs)
);
}
);
width = 481;
}
);
unicode = 100;
},
{
color = 3;
glyphname = e;
lastChange = "2022-10-28 16:46:49 +0000";
layers = (
{
layerId = m01;
shapes = (
{
closed = 1;
nodes = (
(253,419,o),
(289,370,o),
(290,275,c),
(87,275,l),
(85,312,o),
(101,367,o),
(117,385,cs),
(142,412,o),
(172,421,o),
(204,420,cs)
);
},
{
closed = 1;
nodes = (
(163,21,o),
(93,61,o),
(87,186,cs),
(85,214,o),
(85,243,o),
(85,243,c),
(296,243,l),
(381,243,l),
(378,333,o),
(311,452,o),
(212,452,cs),
(90,452,o),
(3,341,o),
(0,222,cs),
(-1,180,o),
(4,141,o),
(20,108,cs),
(32,81,o),
(51,53,o),
(71,34,cs),
(107,-1,o),
(158,-16,o),
(212,-16,cs),
(292,-16,o),
(333,33,o),
(361,63,c),
(349,81,l),
(329,63,o),
(290,21,o),
(233,21,cs)
);
}
);
width = 381;
}
);
unicode = 101;
},
{
color = 3;
glyphname = f;
lastChange = "2022-10-28 16:45:10 +0000";
layers = (
{
layerId = m01;
shapes = (
{
closed = 1;
nodes = (
(77,654,o),
(76,492,o),
(76,423,cs),
(76,0,l),
(154,0,l),
(154,417,ls),
(154,552,o),
(171,619,o),
(236,620,cs),
(257,620,o),
(259,621,o),
(314,603,c),
(325,625,l),
(323,623,o),
(287,654,o),
(236,654,cs)
);
},
{
closed = 1;
nodes = (
(11,435,l),
(11,408,l),
(261,408,l),
(261,435,l)
);
},
{
pos = (154,0);
ref = LowerSerifBottomRight;
},
{
pos = (76,0);
ref = LowerSerifBottomLeft;
}
);
width = 325;
}
);
unicode = 102;
},
{
color = 3;
glyphname = g;
lastChange = "2022-10-28 16:46:07 +0000";
layers = (
{
layerId = m01;
shapes = (
{
closed = 1;
nodes = (
(276,136,o),
(356,207,o),
(356,296,cs),
(356,385,o),
(276,451,o),
(178,451,cs),
(80,451,o),
(0,378,o),
(0,296,cs),
(0,201,o),
(80,136,o),
(178,136,cs)
);
},
{
closed = 1;
nodes = (
(41,3,o),
(5,-30,o),
(5,-83,cs),
(5,-192,o),
(93,-216,o),
(185,-216,cs),
(306,-216,o),
(381,-168,o),
(381,-65,cs),
(381,-9,o),
(336,31,o),
(248,36,cs),
(187,39,o),
(97,36,o),
(86,79,cs),
(78,109,o),
(134,137,o),
(176,138,o),
(223,146,o),
(242,157,o),
(222,151,q),
(166,157,l),
(128,151,ls),
(97,146,o),
(64,135,o),
(36,120,o),
(20,92,o),
(20,69,qs),
(20,49,o),
(32,34,o),
(43,23,cs),
(52,14,o),
(60,13,o),
(69,8,c)
);
},
{
closed = 1;
nodes = (
(115,151,o),
(75,207,o),
(70,292,cs),
(64,368,o),
(92,423,o),
(162,428,cs),
(242,434,o),
(280,378,o),
(285,300,cs),
(291,224,o),
(266,161,o),
(196,157,cs)
);
},
{
closed = 1;
nodes = (
(352,415,o),
(393,408,o),
(416,415,o),
(420,429,o),
(418,434,qs),
(414,446,o),
(399,451,qs),
(385,456,o),
(355,454,o),
(326,440,o),
(305,426,o),
(283,413,q),
(292,386,l)
);
},
{
closed = 1;
nodes = (
(60,-64,o),
(63,-10,o),
(134,-10,cs),
(179,-10,o),
(218,-11,o),
(264,-31,cs),
(298,-46,o),
(321,-61,o),
(321,-95,cs),
(321,-154,o),
(262,-194,o),
(185,-194,cs),
(119,-194,o),
(60,-163,o),
(60,-88,cs)
);
},
{
closed = 1;
nodes = (
(409,377,o),
(426,394,o),
(426,415,cs),
(426,435,o),
(409,452,o),
(389,452,cs),
(368,452,o),
(351,435,o),
(351,415,cs),
(351,394,o),
(368,377,o),
(389,377,cs)
);
}
);
width = 426;
}
);
unicode = 103;
},
{
color = 3;
glyphname = h;
lastChange = "2022-10-28 16:45:59 +0000";
layers = (
{
layerId = m01;
shapes = (
{
closed = 1;
nodes = (
(448,0,l),
(448,324,ls),
(448,381,o),
(431,403,o),
(397,427,cs),
(380,439,o),
(342,450,o),
(300,449,cs),
(243,447,o),
(192,423,o),
(154,381,c),
(154,755,ls),
(154,761,o),
(150,761,o),
(144,761,c),
(83,748,o),
(88,748,o),
(20,748,c),
(20,731,l),
(76,731,o),
(76,723,o),
(76,687,cs),
(76,0,l),
(154,0,l),
(154,337,l),
(180,364,o),
(225,402,o),
(281,402,cs),
(335,402,o),
(370,381,o),
(370,338,cs),
(370,0,l)
);
},
{
pos = (76,0);
ref = LowerSerifBottomLeft;
},
{
pos = (154,0);
ref = LowerSerifBottomRight;
},
{
pos = (371,0);
ref = LowerSerifBottomLeft;
},
{
pos = (449,0);
ref = LowerSerifBottomRight;
},
{
closed = 0;
nodes = (
(669,360,l)
);
},
{
closed = 0;
nodes = (
(720,331,l)
);
}
);
width = 525;
}
);
unicode = 104;
},
{
color = 3;
glyphname = i;
lastChange = "2022-10-28 16:46:44 +0000";
layers = (
{
layerId = m01;
shapes = (
{
closed = 1;
nodes = (
(154,0,l),
(154,455,ls),
(154,461,o),
(150,461,o),
(144,461,c),
(83,448,o),
(88,448,o),
(20,448,c),
(20,431,l),
(76,431,o),
(76,423,o),
(76,387,cs),
(76,0,l)
);
},
{
pos = (154,0);
ref = LowerSerifBottomRight;
},
{
pos = (76,0);
ref = LowerSerifBottomLeft;
},
{
closed = 1;
nodes = (
(71,647,o),
(51,629,o),
(51,607,cs),
(51,585,o),
(71,567,o),
(96,567,cs),
(122,567,o),
(142,585,o),
(142,607,cs),
(142,629,o),
(122,647,o),
(96,647,cs)
);
}
);
width = 230;
}
);
unicode = 105;
},
{
color = 3;
glyphname = j;
lastChange = "2022-10-28 16:34:02 +0000";
layers = (
{
layerId = m01;
shapes = (
{
closed = 1;
nodes = (
(248,-200,o),
(261,-35,o),
(261,34,cs),
(261,455,ls),
(261,461,o),
(257,461,o),
(251,461,c),
(190,448,o),
(195,448,o),
(127,448,c),
(127,431,l),
(183,431,o),
(183,423,o),
(183,387,cs),
(183,40,ls),
(183,-95,o),
(154,-165,o),
(89,-166,cs),
(68,-166,o),
(66,-167,o),
(11,-149,c),
(0,-171,l),
(2,-169,o),
(38,-200,o),
(89,-200,cs)
);
},
{
closed = 1;
nodes = (
(178,647,o),
(158,629,o),
(158,607,cs),
(158,585,o),
(178,567,o),
(203,567,cs),
(229,567,o),
(249,585,o),
(249,607,cs),
(249,629,o),
(229,647,o),
(203,647,cs)
);
}
);
width = 261;
}
);
unicode = 106;
},
{
color = 3;
glyphname = k;
lastChange = "2022-10-28 16:34:02 +0000";
layers = (
{
hints = (
{
name = _corner.rightSerif;
options = 1;
origin = (0,7);
scale = (0.7,1);
type = Corner;
},
{
name = _corner.leftSerif;
origin = (0,9);
scale = (0.74,1);
type = Corner;
},
{
name = _corner.rightSerif;
options = 1;
origin = (0,10);
scale = (0.74,1);
type = Corner;
}
);
layerId = m01;
shapes = (
{
closed = 1;
nodes = (
(153,0,l),
(153,145,l),
(206,216,l),
(265,153,ls),
(357,54,o),
(362,50,o),
(379,0,c),
(499,0,l),
(247,265,l),
(396,450,l),
(342,450,l),
(153,213,l)
);
},
{
closed = 1;
nodes = (
(76,0,l),
(154,0,l),
(154,755,l),
(154,761,o),
(150,761,o),
(144,761,c),
(83,748,o),
(88,748,o),
(20,748,c),
(20,731,l),
(76,731,o),
(76,723,o),
(76,687,cs)
);
},
{
pos = (76,0);
ref = LowerSerifBottomLeft;
},
{
pos = (153,0);
ref = LowerSerifBottomRight;
}
);
width = 568;
}
);
unicode = 107;
},
{
color = 3;
glyphname = l;
lastChange = "2022-10-28 16:46:22 +0000";
layers = (
{
layerId = m01;
shapes = (
{
closed = 1;
nodes = (
(76,0,l),
(154,0,l),
(154,755,l),
(154,761,o),
(150,761,o),
(144,761,c),
(83,748,o),
(88,748,o),
(20,748,c),
(20,731,l),
(76,731,o),
(76,723,o),
(76,687,cs)
);
},
{
pos = (76,0);
ref = LowerSerifBottomLeft;
},
{
pos = (154,0);
ref = LowerSerifBottomRight;
}
);
width = 230;
}
);
unicode = 108;
},
{
color = 3;
glyphname = m;
lastChange = "2022-10-28 16:46:10 +0000";
layers = (
{
layerId = m01;
shapes = (
{
closed = 0;
nodes = (
(669,360,l)
);
},
{
closed = 0;
nodes = (
(720,331,l)
);
},
{
closed = 1;
nodes = (
(455,365,o),
(491,403,o),
(542,403,cs),
(593,403,o),
(626,382,o),
(626,339,cs),
(626,1,l),
(704,1,l),
(704,325,ls),
(704,382,o),
(687,404,o),
(653,428,cs),
(636,440,o),
(603,451,o),
(561,450,cs),
(504,448,o),
(463,410,o),
(425,368,c),
(418,396,o),
(402,410,o),
(378,427,cs),
(361,439,o),
(328,450,o),
(286,449,cs),
(229,447,o),
(192,423,o),
(154,381,c),
(154,445,ls),
(154,451,o),
(150,451,o),
(144,451,c),
(83,438,o),
(88,438,o),
(20,438,c),
(20,421,l),
(76,421,o),
(76,413,o),
(76,377,cs),
(76,0,l),
(154,0,l),
(154,337,l),
(180,364,o),
(216,402,o),
(267,402,cs),
(318,402,o),
(351,381,o),
(351,338,cs),
(351,0,l),
(429,0,l),
(429,324,ls),
(429,329,o),
(429,334,o),
(429,338,c)
);
},
{
pos = (76,0);
ref = LowerSerifBottomLeft;
},
{
pos = (154,0);
ref = LowerSerifBottomRight;
},
{
pos = (351,0);
ref = LowerSerifBottomLeft;
},
{
pos = (429,0);
ref = LowerSerifBottomRight;
},
{
pos = (626,1);
ref = LowerSerifBottomLeft;
},
{
pos = (704,1);
ref = LowerSerifBottomRight;
}
);
width = 780;
}
);
unicode = 109;
},
{
color = 3;
glyphname = n;
lastChange = "2022-10-28 16:46:47 +0000";
layers = (
{
layerId = m01;
shapes = (
{
closed = 1;
nodes = (
(439,0,l),
(439,324,ls),
(439,381,o),
(422,403,o),
(388,427,cs),
(371,439,o),
(338,450,o),
(296,449,cs),
(239,447,o),
(192,423,o),
(154,381,c),
(154,445,ls),
(154,451,o),
(150,451,o),
(144,451,c),
(83,438,o),
(88,438,o),
(20,438,c),
(20,421,l),
(76,421,o),
(76,413,o),
(76,377,cs),
(76,0,l),
(154,0,l),
(154,337,l),
(180,364,o),
(221,402,o),
(277,402,cs),
(331,402,o),
(361,381,o),
(361,338,cs),
(361,0,l)
);
},
{
pos = (76,0);
ref = LowerSerifBottomLeft;
},
{
pos = (154,0);
ref = LowerSerifBottomRight;
},
{
pos = (361,0);
ref = LowerSerifBottomLeft;
},
{
pos = (439,0);
ref = LowerSerifBottomRight;
}
);
width = 515;
}
);
unicode = 110;
},
{
color = 3;
glyphname = o;
lastChange = "2022-10-28 16:46:17 +0000";
layers = (
{
layerId = m01;
shapes = (
{
attr = {
fill = "1";
};
closed = 1;
nodes = (
(323,-16,o),
(416,91,o),
(416,222,c),
(416,355,o),
(323,452,o),
(208,452,cs),
(93,452,o),
(0,345,o),
(0,222,c),
(0,82,o),
(93,-16,o),
(208,-16,cs)
);
},
{
attr = {
fill = "1";
};
closed = 1;
nodes = (
(135,7,o),
(92,91,o),
(86,216,cs),
(79,330,o),
(107,412,o),
(189,420,cs),
(283,428,o),
(324,345,o),
(330,229,cs),
(337,116,o),
(311,23,o),
(229,16,cs)
);
}
);
width = 416;
}
);
unicode = 111;
},
{
color = 3;
glyphname = p;
lastChange = "2022-10-28 16:46:41 +0000";
layers = (
{
hints = (
{
horizontal = 1;
origin = (0,25);
target = down;
type = TopGhost;
}
);
layerId = m01;
shapes = (
{
closed = 1;
nodes = (
(161,-216,l),
(161,5,l),
(189,-9,o),
(217,-17,o),
(250,-17,cs),
(337,-17,o),
(415,30,o),
(447,115,cs),
(461,152,o),
(461,204,o),
(460,234,cs),
(457,293,o),
(438,343,o),
(408,381,cs),
(367,434,o),
(309,451,o),
(250,451,cs),
(205,451,o),
(171,425,o),
(161,415,c),
(161,419,o),
(161,449,o),
(161,455,cs),
(161,461,o),
(156,461,o),
(150,461,c),
(89,448,o),
(68,448,o),
(0,448,c),
(0,431,l),
(56,431,o),
(82,423,o),
(82,387,cs),
(83,-216,l)
);
},
{
pos = (83,-216);
ref = LowerSerifBottomLeft;
},
{
pos = (161,-216);
ref = LowerSerifBottomRight;
},
{
closed = 1;
nodes = (
(216,11,o),
(158,26,o),
(158,77,c),
(155,362,l),
(168,397,o),
(208,425,o),
(248,426,cs),
(293,427,o),
(323,401,o),
(347,351,cs),
(361,321,o),
(369,280,o),
(374,235,cs),
(377,203,o),
(373,156,o),
(369,130,cs),
(358,64,o),
(327,21,o),
(269,15,cs)
);
}
);
width = 460;
}
);
unicode = 112;
},
{
color = 3;
glyphname = q;
lastChange = "2022-10-28 16:34:02 +0000";
layers = (
{
layerId = m01;
shapes = (
{
closed = 1;
nodes = (
(378,435,o),
(378,443,o),
(434,443,c),
(434,460,l),
(366,460,o),
(377,460,o),
(316,473,c),
(310,473,o),
(306,473,o),
(306,467,cs),
(306,414,l),
(293,431,o),
(255,451,o),
(210,451,cs),
(151,451,o),
(93,434,o),
(52,381,cs),
(22,343,o),
(3,293,o),
(0,234,cs),
(-1,204,o),
(8,153,o),
(18,126,cs),
(49,44,o),
(123,-17,o),
(210,-17,cs),
(243,-17,o),
(274,-9,o),
(302,5,c),
(302,-217,l),
(377,-217,l),
(378,399,ls)
);
},
{
closed = 1;
nodes = (
(91,280,o),
(99,321,o),
(113,351,cs),
(137,401,o),
(167,427,o),
(212,426,cs),
(252,425,o),
(292,397,o),
(305,362,c),
(302,77,l),
(302,26,o),
(244,10,o),
(191,15,cs),
(133,21,o),
(102,64,o),
(91,130,cs),
(87,156,o),
(83,203,o),
(86,235,cs)
);
},
{
pos = (302,-217);
ref = LowerSerifBottomLeft;
},
{
pos = (377,-217);
ref = LowerSerifBottomRight;
}
);
width = 453;
}
);
unicode = 113;
},
{
color = 3;
glyphname = r;
lastChange = "2022-10-28 16:46:43 +0000";
layers = (
{
layerId = m01;
shapes = (
{
closed = 1;
nodes = (
(361,437,l),
(351,442,o),
(340,444,o),
(328,445,cs),
(270,448,o),
(189,408,o),
(158,373,c),
(154,445,ls),
(154,451,o),
(150,451,o),
(144,451,c),
(83,438,o),
(88,438,o),
(20,438,c),
(20,421,l),
(76,421,o),
(76,413,o),
(76,377,cs),
(76,0,l),
(154,0,l),
(154,227,ls),
(154,269,o),
(159,293,o),
(177,328,cs),
(195,362,o),
(302,406,o),
(309,384,c)
);
},
{
pos = (76,0);
ref = LowerSerifBottomLeft;
},
{
pos = (154,0);
ref = LowerSerifBottomRight;
},
{
closed = 1;
nodes = (
(364,362,o),
(381,379,o),
(381,400,cs),
(381,425,o),
(364,441,o),
(346,441,cs),
(325,441,o),
(306,420,o),
(306,400,cs),
(306,379,o),
(323,362,o),
(344,362,cs)
);
}
);
width = 381;
}
);
unicode = 114;
},
{
color = 3;
glyphname = s;
lastChange = "2022-10-28 16:46:19 +0000";
layers = (
{
background = {
shapes = (
{
closed = 0;
nodes = (
(62,54,l),
(62,16,l)
);
},
{
closed = 1;
nodes = (
(54,21,o),
(23,41,o),
(21,1,c),
(2,1,l),
(11,4,o),
(5,142,o),
(-5,141,c),
(15,141,l),
(22,104,o),
(34,91,o),
(40,83,cs),
(62,54,l),
(62,16,l)
);
}
);
};
layerId = m01;
shapes = (
{
closed = 1;
nodes = (
(226,396,o),
(200,423,o),
(146,416,cs),
(80,407,o),
(57,359,o),
(82,314,cs),
(88,302,o),
(101,287,o),
(129,274,cs),
(161,258,o),
(219,228,o),
(236,220,cs),
(254,210,o),
(276,195,o),
(287,175,cs),
(301,150,o),
(301,125,o),
(301,104,cs),
(301,65,o),
(274,22,o),
(238,1,cs),
(215,-13,o),
(179,-19,o),
(139,-16,cs),
(101,-13,o),
(64,5,o),
(50,12,cs),
(42,17,o),
(29,23,o),
(9,41,c),
(9,58,o),
(10,133,o),
(0,134,c),
(20,134,l),
(27,96,o),
(29,72,o),
(40,63,cs),
(51,52,o),
(91,20,o),
(139,18,cs),
(172,17,o),
(200,25,o),
(216,39,cs),
(233,53,o),
(237,68,o),
(235,101,cs),
(234,115,o),
(226,139,o),
(195,153,cs),
(91,201,ls),
(82,205,o),
(52,223,o),
(38,243,cs),
(16,276,o),
(18,305,o),
(18,319,cs),
(18,386,o),
(73,443,o),
(139,449,cs),
(174,452,o),
(186,450,o),
(222,435,cs),
(247,425,o),
(257,412,o),
(271,403,c),
(271,386,o),
(268,314,o),
(278,313,c),
(258,313,l),
(251,351,o),
(250,371,o),
(240,381,cs)
);
}
);
width = 301;
}
);
unicode = 115;
},
{
color = 3;
glyphname = t;
kernLeft = "0";
kernRight = "0";
lastChange = "2022-10-28 16:46:25 +0000";
layers = (
{
hints = (
{
place = (381, 30);
place = (381, 30);
type = Stem;
}
);
layerId = m01;
shapes = (
{
closed = 1;
nodes = (
(64,36,o),
(90,-18,o),
(195,-18,cs),
(237,-18,o),
(266,6,o),
(283,21,c),
(272,42,l),
(238,25,o),
(216,16,o),
(195,16,cs),
(150,17,o),
(141,46,o),
(141,130,cs),
(141,423,l),
(247,423,l),
(247,462,l),
(141,462,l),
(141,592,l),
(114,592,l),
(114,497,o),
(69,436,o),
(0,462,c),
(0,423,l),
(64,423,l),
(64,124,ls)
);
}
);
width = 285;
}
);
unicode = 116;
},
{
color = 3;
glyphname = u;
lastChange = "2022-10-28 16:46:18 +0000";
layers = (
{
layerId = m01;
shapes = (
{
closed = 0;
nodes = (
(-174,75,l)
);
},
{
closed = 0;
nodes = (
(-225,104,l)
);
},
{
closed = 1;
nodes = (
(419,464,o),
(415,464,o),
(409,464,c),
(348,451,o),
(353,451,o),
(285,451,c),
(285,434,l),
(341,434,o),
(341,426,o),
(341,390,cs),
(341,98,l),
(315,71,o),
(274,33,o),
(218,33,cs),
(164,33,o),
(134,54,o),
(134,97,cs),
(134,309,l),
(134,458,ls),
(134,464,o),
(130,464,o),
(124,464,c),
(63,451,o),
(68,451,o),
(0,451,c),
(0,434,l),
(56,434,o),
(56,426,o),
(56,376,cs),
(56,309,ls),
(56,204,o),
(56,135,o),
(56,120,c),
(56,50,o),
(66,33,o),
(95,13,cs),
(123,-7,o),
(164,-15,o),
(218,-14,cs),
(274,-13,o),
(314,17,o),
(341,54,c),
(341,6,ls),
(341,0,o),
(345,0,o),
(351,0,c),
(410,1,o),
(407,-3,o),
(475,-3,c),
(475,14,l),
(419,14,o),
(419,22,o),
(419,58,cs),
(419,458,ls)
);
}
);
width = 475;
}
);
unicode = 117;
},
{
color = 3;
glyphname = v;
lastChange = "2022-10-28 16:34:02 +0000";
layers = (
{
hints = (
{
name = _corner.rightSerif;
options = 1;
origin = (0,0);
scale = (0.73,1);
type = Corner;
},
{
name = _corner.leftSerif;
origin = (0,3);
scale = (0.73,1);
type = Corner;
},
{
name = _corner.rightSerif;
options = 1;
origin = (1,0);
scale = (0.73,1);
type = Corner;
},
{
name = _corner.leftSerif;
origin = (1,3);
scale = (0.73,1);
type = Corner;
}
);
layerId = m01;
shapes = (
{
closed = 1;
nodes = (
(72,435,l),
(231,-15,l),
(277,47,l),
(149,435,l)
);
},
{
closed = 1;
nodes = (
(388,435,l),
(231,-15,l),
(270,-15,l),
(429,435,l)
);
}
);
width = 495;
}
);
unicode = 118;
},
{
color = 3;
glyphname = w;
lastChange = "2022-10-28 16:44:37 +0000";
layers = (
{
hints = (
{
name = _corner.rightSerif;
options = 1;
origin = (0,0);
scale = (0.73,1);
type = Corner;
},
{
name = _corner.leftSerif;
origin = (2,10);
scale = (0.73,1);
type = Corner;
},
{
name = _corner.rightSerif;
options = 1;
origin = (3,0);
scale = (0.73,1);
type = Corner;
},
{
name = _corner.leftSerif;
origin = (3,3);
scale = (0.73,1);
type = Corner;
}
);
layerId = m01;
shapes = (
{
closed = 1;
nodes = (
(72,435,l),
(231,-15,l),
(277,47,l),
(183,332,l),
(156,413,o),
(169,422,o),
(215,422,c),
(209,437,l),
(183,437,o),
(158,435,o),
(140,435,c)
);
},
{
closed = 1;
nodes = (
(340,289,l),
(231,-15,l),
(270,-15,l),
(381,289,l)
);
},
{
closed = 1;
nodes = (
(290,434,l),
(272,434,o),
(241,437,o),
(209,437,c),
(215,422,l),
(262,422,o),
(289,412,o),
(317,332,c),
(440,-16,l),
(486,46,l),
(358,434,l)
);
},
{
closed = 1;
nodes = (
(597,434,l),
(440,-16,l),
(479,-16,l),
(638,434,l)
);
}
);
width = 704;
}
);
unicode = 119;
},
{
color = 3;
glyphname = x;
lastChange = "2022-10-28 16:46:40 +0000";
layers = (
{
hints = (
{
name = _corner.rightSerif;
options = 1;
origin = (0,0);
scale = (0.7,1);
type = Corner;
},
{
name = _corner.leftSerif;
origin = (0,2);
scale = (0.8,1);
type = Corner;
},
{
name = _corner.rightSerif;
options = 1;
origin = (0,3);
scale = (0.5,1);
type = Corner;
},
{
name = _corner.leftSerif;
origin = (0,5);
scale = (0.5,1);
type = Corner;
},
{
name = _corner.rightSerif;
options = 1;
origin = (0,6);
type = Corner;
},
{
name = _corner.leftSerif;
origin = (0,8);
scale = (0.7,1);
type = Corner;
},
{
name = _corner.rightSerif;
options = 1;
origin = (0,9);
scale = (0.5,1);
type = Corner;
},
{
name = _corner.leftSerif;
origin = (0,11);
scale = (0.6,1);
type = Corner;
}
);
layerId = m01;
shapes = (
{
closed = 1;
nodes = (
(92,0,l),
(245,181,l),
(370,0,l),
(453,0,l),
(287,231,l),
(445,435,l),
(411,435,l),
(266,253,l),
(132,435,l),
(49,435,l),
(223,206,l),
(60,0,l)
);
}
);
width = 502;
}
);
unicode = 120;
},
{
color = 3;
glyphname = y;
lastChange = "2022-10-28 16:45:57 +0000";
layers = (
{
hints = (
{
name = _corner.rightSerif;
options = 1;
origin = (0,3);
scale = (0.73,1);
type = Corner;
},
{
name = _corner.leftSerif;
origin = (0,2);
scale = (0.73,1);
type = Corner;
},
{
name = _corner.leftSerif;
origin = (3,1);
scale = (0.73,1);
type = Corner;
}
);
layerId = m01;
shapes = (
{
closed = 1;
nodes = (
(264,-15,l),
(284,47,l),
(156,435,l),
(72,435,l),
(231,-15,l)
);
},
{
closed = 1;
nodes = (
(79,-159,o),
(96,-142,o),
(96,-122,cs),
(96,-101,o),
(79,-84,o),
(59,-84,cs),
(38,-84,o),
(21,-101,o),
(21,-122,cs),
(21,-142,o),
(38,-159,o),
(59,-159,cs)
);
},
{
closed = 1;
nodes = (
(186,-200,o),
(218,-187,o),
(284,-15,c),
(231,-15,l),
(166,-168,o),
(157,-166,o),
(126,-166,cs),
(107,-166,o),
(87,-149,o),
(93,-136,c),
(30,-146,l),
(63,-180,o),
(84,-196,o),
(132,-198,cs)
);
},
{
closed = 1;
nodes = (
(284,-15,l),
(443,435,l),
(395,435,l),
(238,-15,l)
);
}
);
width = 509;
}
);
unicode = 121;
},
{
color = 3;
glyphname = z;
lastChange = "2022-10-28 16:34:02 +0000";
layers = (
{
layerId = m01;
shapes = (
{
closed = 1;
nodes = (
(83,411,l),
(11,411,l)
);
},
{
closed = 1;
nodes = (
(11,396,l),
(307,396,l),
(307,435,l),
(11,435,l)
);
},
{
closed = 1;
nodes = (
(9,0,l),
(75,0,l),
(320,396,l),
(320,435,l),
(253,435,l),
(9,39,l)
);
},
{
closed = 1;
nodes = (
(256,23,l),
(327,23,l)
);
},
{
closed = 1;
nodes = (
(32,0,l),
(327,0,l),
(327,39,l),
(32,39,l)
);
},
{
closed = 1;
nodes = (
(8,435,l),
(13,424,o),
(3,347,o),
(0,316,c),
(3,316,o),
(20,316,o),
(20,316,c),
(32,388,o),
(23,396,o),
(68,396,c),
(68,435,l)
);
},
{
closed = 1;
nodes = (
(330,0,l),
(325,11,o),
(335,88,o),
(338,119,c),
(335,119,o),
(318,119,o),
(318,119,c),
(306,47,o),
(315,39,o),
(270,39,c),
(270,0,l)
);
}
);
width = 338;
}
);
unicode = 122;
},
{
color = 3;
glyphname = zero;
kernLeft = "9";
lastChange = "2022-10-28 16:53:48 +0000";
layers = (
{
layerId = m01;
shapes = (
{
attr = {
fill = "1";
};
closed = 1;
nodes = (
(400,-16,o),
(514,141,o),
(514,344,cs),
(514,550,o),
(400,710,o),
(257,710,cs),
(114,710,o),
(0,534,o),
(0,344,cs),
(0,127,o),
(114,-16,o),
(257,-16,cs)
);
},
{
attr = {
fill = "1";
};
closed = 1;
nodes = (
(146,36,o),
(93,167,o),
(93,344,cs),
(93,521,o),
(153,648,o),
(257,648,cs),
(361,648,o),
(420,521,o),
(420,344,cs),
(420,167,o),
(368,36,o),
(257,36,cs)
);
}
);
width = 514;
}
);
unicode = 48;
},
{
color = 3;
glyphname = one;
kernLeft = "0";
kernRight = "0";
lastChange = "2022-10-28 16:54:00 +0000";
layers = (
{
layerId = m01;
shapes = (
{
closed = 1;
nodes = (
(219,0,l),
(288,0,l),
(288,670,l),
(288,675,o),
(285,675,o),
(280,675,c),
(225,664,o),
(180,644,o),
(120,644,c),
(120,624,l),
(169,624,o),
(219,622,o),
(219,590,cs)
);
},
{
pos = (219,0);
ref = LowerSerifBottomLeft;
},
{
pos = (288,0);
ref = LowerSerifBottomRight;
}
);
width = 364;
}
);
unicode = 49;
},
{
color = 3;
glyphname = two;
kernLeft = "0";
kernRight = "0";
lastChange = "2022-10-28 16:53:56 +0000";
layers = (
{
hints = (
{
place = (55, 30);
place = (55, 30);
type = Stem;
}
);
layerId = m01;
shapes = (
{
closed = 1;
nodes = (
(528,0,l),
(528,65,l),
(298,65,l),
(531,361,l),
(621,480,o),
(620,514,o),
(620,554,cs),
(620,623,o),
(570,686,o),
(454,686,cs),
(350,686,o),
(279,632,o),
(235,574,c),
(243,565,o),
(251,534,o),
(256,503,c),
(275,508,l),
(286,565,o),
(339,631,o),
(418,631,cs),
(479,631,o),
(537,594,o),
(537,537,cs),
(537,500,o),
(511,454,o),
(478,405,c),
(387,270,o),
(235,45,o),
(218,33,c),
(210,0,l)
);
},
{
closed = 1;
nodes = (
(625,0,l),
(617,13,o),
(633,104,o),
(637,141,c),
(633,141,o),
(617,142,o),
(617,142,c),
(603,82,o),
(600,65,o),
(528,65,c),
(528,0,l)
);
},
{
closed = 0;
nodes = (
(242,598,l)
);
}
);
width = 637;
}
);
unicode = 50;
},
{
color = 3;
glyphname = three;
kernLeft = "0";
kernRight = "0";
lastChange = "2022-10-28 16:48:07 +0000";
layers = (
{
layerId = m01;
shapes = (
{
closed = 1;
nodes = (
(255,502,l),
(247,530,o),
(247,563,o),
(230,583,c),
(268,629,o),
(331,689,o),
(445,688,cs),
(537,687,o),
(585,629,o),
(585,582,cs),
(585,520,o),
(563,459,o),
(443,389,c),
(554,376,o),
(635,332,o),
(635,241,cs),
(635,66,o),
(514,-26,o),
(254,-6,c),
(264,47,o),
(243,101,o),
(238,153,c),
(262,156,l),
(283,42,o),
(318,25,o),
(392,25,cs),
(435,25,o),
(552,52,o),
(552,207,cs),
(552,301,o),
(500,355,o),
(332,355,c),
(341,386,l),
(446,394,o),
(507,489,o),
(507,545,cs),
(507,596,o),
(486,636,o),
(412,636,cs),
(357,636,o),
(286,569,o),
(277,509,c)
);
}
);
width = 635;
}
);
unicode = 51;
},
{
color = 3;
glyphname = four;
lastChange = "2022-10-28 16:48:07 +0000";
layers = (
{
layerId = m01;
shapes = (
{
closed = 1;
nodes = (
(71,213,l),
(323,652,l),
(284,676,l),
(38,245,l),
(30,213,l)
);
},
{
pos = (285,0);
ref = LowerSerifBottomLeft;
},
{
pos = (356,0);
ref = LowerSerifBottomRight;
},
{
closed = 1;
nodes = (
(454,213,l),
(454,250,l),
(71,250,l),
(71,213,l)
);
},
{
closed = 1;
nodes = (
(355,0,l),
(355,676,l),
(285,676,l),
(285,0,l)
);
},
{
closed = 1;
nodes = (
(482,213,l),
(475,224,o),
(499,292,o),
(503,323,c),
(499,323,o),
(485,324,o),
(485,324,c),
(473,272,o),
(461,250,o),
(425,250,c),
(425,213,l)
);
},
{
closed = 1;
nodes = (
(355,608,o),
(354,647,o),
(383,662,c),
(383,676,l),
(355,676,l),
(355,579,l)
);
}
);
width = 503;
}
);
unicode = 52;
},
{
color = 3;
glyphname = five;
kernLeft = "0";
kernRight = "0";
lastChange = "2022-10-28 16:48:09 +0000";
layers = (
{
hints = (
{
place = (412, 30);
place = (412, 30);
type = Stem;
}
);
layerId = m01;
shapes = (
{
closed = 1;
nodes = (
(334,230,o),
(334,207,cs),
(334,52,o),
(217,25,o),
(174,25,cs),
(100,25,o),
(65,42,o),
(45,155,c),
(20,152,l),
(25,101,o),
(47,47,o),
(36,-7,c),
(296,-26,o),
(417,66,o),
(417,240,cs),
(417,299,o),
(387,421,o),
(247,421,cs),
(144,421,o),
(104,378,o),
(104,386,c),
(151,612,l),
(229,612,o),
(265,612,o),
(373,612,c),
(393,644,o),
(400,670,o),
(425,688,c),
(425,704,l),
(394,682,o),
(336,673,o),
(314,673,cs),
(239,673,o),
(163,673,o),
(97,673,c),
(84,538,o),
(51,413,o),
(36,277,c),
(114,368,o),
(172,368,o),
(219,368,cs),
(330,368,o)
);
}
);
width = 425;
}
);
unicode = 53;
},
{
color = 3;
glyphname = six;
kernLeft = "0";
kernRight = "0";
lastChange = "2022-10-28 16:47:59 +0000";
layers = (
{
layerId = m01;
shapes = (
{
attr = {
fill = "1";
};
closed = 1;
nodes = (
(539,-16,o),
(632,71,o),
(632,184,cs),
(632,299,o),
(539,386,o),
(428,386,cs),
(304,386,o),
(220,219,o),
(220,194,cs),
(220,43,o),
(309,-16,o),
(428,-16,cs)
);
},
{
attr = {
fill = "1";
};
closed = 1;
nodes = (
(333,35,o),
(300,103,o),
(300,150,cs),
(300,223,o),
(289,335,o),
(428,335,cs),
(510,335,o),
(552,281,o),
(552,184,cs),
(552,87,o),
(515,35,o),
(428,35,cs)
);
},
{
closed = 1;
nodes = (
(300,189,l),
(300,417,o),
(384,585,o),
(511,666,c),
(504,710,l),
(363,653,o),
(220,459,o),
(220,189,c)
);
}
);
width = 632;
}
);
unicode = 54;
},
{
color = 3;
glyphname = seven;
kernLeft = "0";
kernRight = "0";
lastChange = "2022-10-28 16:48:03 +0000";
layers = (
{
layerId = m01;
shapes = (
{
closed = 1;
nodes = (
(148,614,l),
(523,614,l),
(523,684,l),
(148,684,l)
);
},
{
closed = 1;
nodes = (
(131,684,l),
(138,673,o),
(114,573,o),
(110,542,c),
(114,542,o),
(128,541,o),
(128,541,c),
(140,593,o),
(152,614,o),
(188,614,c),
(188,684,l)
);
},
{
closed = 1;
nodes = (
(301,0,l),
(321,92,o),
(476,467,o),
(574,684,c),
(523,684,l),
(420,456,o),
(234,52,o),
(226,0,c)
);
}
);
width = 574;
}
);
unicode = 55;
},
{
color = 3;
glyphname = eight;
kernLeft = "0";
kernRight = "0";
lastChange = "2022-10-28 16:48:04 +0000";
layers = (
{
layerId = m01;
shapes = (
{
closed = 1;
nodes = (
(497,0,o),
(590,73,o),
(590,188,cs),
(590,285,o),
(540,361,o),
(454,392,c),
(519,417,o),
(558,457,o),
(558,529,cs),
(558,625,o),
(477,700,o),
(380,700,cs),
(283,700,o),
(202,618,o),
(202,529,cs),
(202,452,o),
(251,384,o),
(316,362,c),
(223,339,o),
(180,277,o),
(180,188,cs),
(180,65,o),
(263,0,o),
(380,0,cs)
);
},
{
closed = 1;
nodes = (
(261,254,o),
(269,333,o),
(350,349,c),
(389,344,o),
(425,338,o),
(456,320,cs),
(500,294,o),
(509,249,o),
(509,188,cs),
(509,104,o),
(471,30,o),
(380,30,cs),
(289,30,o),
(261,104,o),
(261,188,cs)
);
},
{
closed = 1;
nodes = (
(274,611,o),
(309,671,o),
(380,671,cs),
(451,671,o),
(486,611,o),
(486,529,cs),
(486,466,o),
(469,425,o),
(425,405,c),
(374,416,o),
(327,421,o),
(294,460,cs),
(279,477,o),
(274,503,o),
(274,529,cs)
);
}
);
width = 673;
}
);
unicode = 56;
},
{
color = 3;
glyphname = nine;
kernLeft = "0";
kernRight = "0";
lastChange = "2022-10-28 16:48:02 +0000";
layers = (
{
layerId = m01;
shapes = (
{
attr = {
fill = "1";
};
closed = 1;
nodes = (
(214,710,o),
(120,623,o),
(120,510,cs),
(120,395,o),
(214,307,o),
(325,307,cs),
(448,307,o),
(533,475,o),
(533,500,cs),
(533,651,o),
(445,710,o),
(325,710,cs)
);
},
{
attr = {
fill = "1";
};
closed = 1;
nodes = (
(420,659,o),
(453,592,o),
(453,544,cs),
(453,470,o),
(464,359,o),
(325,359,cs),
(243,359,o),
(201,412,o),
(201,510,cs),
(201,607,o),
(238,659,o),
(325,659,cs)
);
},
{
closed = 1;
nodes = (
(453,505,l),
(453,277,o),
(369,109,o),
(242,28,c),
(248,-16,l),
(390,41,o),
(533,235,o),
(533,505,c)
);
}
);
width = 533;
}
);
unicode = 57;
},
{
color = 3;
glyphname = zero.osf;
kernLeft = "8";
lastChange = "2022-10-28 16:53:03 +0000";
layers = (
{
layerId = m01;
shapes = (
{
attr = {
fill = "1";
};
closed = 1;
nodes = (
(351,-10,o),
(448,97,o),
(448,220,c),
(448,345,o),
(351,451,o),
(229,451,cs),
(107,451,o),
(10,335,o),
(10,220,c),
(10,89,o),
(107,-10,o),
(229,-10,cs)
);
},
{
attr = {
fill = "1";
};
closed = 1;
nodes = (
(153,48,o),
(89,114,o),
(89,220,cs),
(89,317,o),
(154,394,o),
(229,394,cs),
(304,394,o),
(368,317,o),
(368,220,cs),
(368,114,o),
(305,48,o),
(229,48,cs)
);
}
);
width = 472;
}
);
tags = (
"Clean up"
);
},
{
color = 3;
glyphname = one.osf;
lastChange = "2022-10-28 16:34:02 +0000";
layers = (
{
layerId = m01;
shapes = (
{
closed = 1;
nodes = (
(168,0,l),
(168,441,ls),
(168,446,o),
(165,446,o),
(160,446,c),
(105,435,o),
(60,415,o),
(0,415,c),
(0,395,l),
(49,395,o),
(99,393,o),
(99,361,cs),
(99,0,l)
);
},
{
pos = (99,0);
ref = LowerSerifBottomLeft;
},
{
pos = (168,0);
ref = LowerSerifBottomRight;
}
);
width = 244;
}
);
tags = (
"Clean up"
);
},
{
color = 3;
glyphname = two.osf;
lastChange = "2022-10-28 16:48:16 +0000";
layers = (
{
layerId = m01;
shapes = (
{
closed = 1;
nodes = (
(289,0,l),
(289,57,l),
(108,57,l),
(251,229,l),
(308,304,o),
(307,326,o),
(307,351,cs),
(307,395,o),
(255,442,o),
(182,442,cs),
(116,442,o),
(71,401,o),
(43,364,c),
(48,358,o),
(51,339,o),
(54,319,c),
(74,322,l),
(84,375,o),
(112,399,o),
(162,399,cs),
(201,399,o),
(234,383,o),
(234,341,cs),
(234,317,o),
(221,288,o),
(200,257,c),
(142,171,o),
(46,29,o),
(35,21,c),
(30,0,l)
);
},
{
closed = 1;
nodes = (
(350,0,l),
(345,8,o),
(362,96,o),
(365,132,c),
(360,132,o),
(345,134,o),
(345,134,c),
(336,74,o),
(334,57,o),
(289,57,c),
(289,0,l)
);
},
{
closed = 0;
nodes = (
(47,379,l)
);
}
);
width = 365;
}
);
tags = (
"Clean up"
);
},
{
color = 3;
glyphname = three.osf;
kernLeft = "0";
kernRight = "0";
lastChange = "2022-10-28 16:48:17 +0000";
layers = (
{
layerId = m01;
shapes = (
{
closed = 1;
nodes = (
(42,279,l),
(35,305,o),
(35,335,o),
(20,353,c),
(54,395,o),
(111,449,o),
(215,448,cs),
(298,447,o),
(342,395,o),
(342,352,cs),
(342,296,o),
(322,240,o),
(213,177,c),
(314,165,o),
(387,125,o),
(387,42,cs),
(387,-116,o),
(277,-200,o),
(41,-182,c),
(51,-134,o),
(31,-85,o),
(27,-38,c),
(49,-35,l),
(68,-138,o),
(100,-154,o),
(167,-154,cs),
(206,-154,o),
(312,-129,o),
(312,11,cs),
(312,97,o),
(265,146,o),
(112,146,c),
(120,174,l),
(216,181,o),
(271,267,o),
(271,318,cs),
(271,365,o),
(252,401,o),
(185,401,cs),
(135,401,o),
(71,340,o),
(62,286,c)
);
}
);
width = 387;
}
);
},
{
color = 3;
glyphname = four.osf;
kernLeft = "0";
kernRight = "0";
lastChange = "2022-10-28 16:49:25 +0000";
layers = (
{
layerId = m01;
shapes = (
{
closed = 1;
nodes = (
(243,26,l),
(458,414,l),
(427,435,l),
(216,54,l),
(210,26,l)
);
},
{
closed = 1;
nodes = (
(561,26,l),
(561,59,l),
(243,59,l),
(243,26,l)
);
},
{
closed = 1;
nodes = (
(481,-162,l),
(481,435,l),
(428,435,l),
(428,-162,l)
);
},
{
closed = 1;
nodes = (
(584,26,l),
(579,35,o),
(598,95,o),
(601,124,c),
(598,124,o),
(586,125,o),
(586,125,c),
(577,78,o),
(567,59,o),
(537,59,c),
(537,26,l)
);
},
{
closed = 1;
nodes = (
(481,375,o),
(480,410,o),
(504,423,c),
(504,435,l),
(481,435,l),
(481,350,l)
);
},
{
pos = (481,-162);
ref = LowerSerifBottomRight;
scale = (0.9621,1.1453);
},
{
pos = (428,-162);
ref = LowerSerifBottomLeft;
scale = (0.9621,1.1453);
}
);
width = 601;
}
);
},
{
color = 3;
glyphname = five.osf;
kernLeft = "0";
kernRight = "0";
lastChange = "2022-10-28 16:48:24 +0000";
layers = (
{
layerId = m01;
shapes = (
{
closed = 1;
nodes = (
(472,78,o),
(472,60,cs),
(472,-65,o),
(378,-87,o),
(344,-87,cs),
(284,-87,o),
(256,-73,o),
(239,19,c),
(220,16,l),
(224,-25,o),
(241,-69,o),
(233,-112,c),
(442,-128,o),
(538,-54,o),
(538,86,cs),
(538,134,o),
(514,232,o),
(403,232,cs),
(320,232,o),
(287,197,o),
(287,203,c),
(325,385,l),
(387,385,o),
(417,385,o),
(504,385,c),
(521,412,o),
(526,432,o),
(545,447,c),
(545,459,l),
(521,442,o),
(473,435,o),
(456,435,cs),
(395,435,o),
(334,435,o),
(282,435,c),
(270,326,o),
(244,226,o),
(233,117,c),
(295,188,o),
(342,188,o),
(379,188,cs),
(469,188,o)
);
}
);
width = 564;
}
);
},
{
color = 3;
glyphname = six.osf;
kernLeft = "0";
kernRight = "0";
lastChange = "2022-10-28 16:48:27 +0000";
layers = (
{
layerId = m01;
shapes = (
{
attr = {
fill = "1";
};
closed = 1;
nodes = (
(454,-16,o),
(528,53,o),
(528,143,cs),
(528,234,o),
(454,303,o),
(366,303,cs),
(267,303,o),
(200,171,o),
(200,151,cs),
(200,31,o),
(271,-16,o),
(366,-16,cs)
);
},
{
attr = {
fill = "1";
};
closed = 1;
nodes = (
(290,25,o),
(264,79,o),
(264,116,cs),
(264,174,o),
(255,263,o),
(366,263,cs),
(431,263,o),
(464,220,o),
(464,143,cs),
(464,66,o),
(435,25,o),
(366,25,cs)
);
},
{
closed = 1;
nodes = (
(264,147,l),
(264,328,o),
(331,462,o),
(432,526,c),
(426,561,l),
(314,516,o),
(200,361,o),
(200,147,c)
);
}
);
width = 648;
}
);
},
{
color = 3;
glyphname = seven.osf;
kernLeft = "0";
kernRight = "1";
lastChange = "2022-10-28 16:53:01 +0000";
layers = (
{
layerId = m01;
shapes = (
{
closed = 1;
nodes = (
(49,381,l),
(337,381,l),
(337,435,l),
(49,435,l)
);
},
{
closed = 1;
nodes = (
(36,435,l),
(41,427,o),
(23,349,o),
(20,325,c),
(23,325,o),
(33,324,o),
(33,324,c),
(43,364,o),
(52,381,o),
(80,381,c),
(80,435,l)
);
},
{
closed = 1;
nodes = (
(166,-100,l),
(182,-28,o),
(300,265,o),
(376,435,c),
(337,435,l),
(258,257,o),
(116,-59,o),
(109,-100,c)
);
}
);
width = 376;
}
);
},
{
color = 3;
glyphname = eight.osf;
kernLeft = "0";
kernRight = "10";
lastChange = "2022-10-28 16:52:44 +0000";
layers = (
{
layerId = m01;
shapes = (
{
closed = 1;
nodes = (
(461,0,o),
(538,60,o),
(538,155,cs),
(538,235,o),
(497,298,o),
(426,323,c),
(479,344,o),
(512,377,o),
(512,436,cs),
(512,515,o),
(445,577,o),
(365,577,cs),
(285,577,o),
(218,509,o),
(218,436,cs),
(218,373,o),
(259,317,o),
(312,298,c),
(235,279,o),
(200,228,o),
(200,155,cs),
(200,54,o),
(268,0,o),
(365,0,cs)
);
},
{
closed = 1;
nodes = (
(267,209,o),
(273,274,o),
(340,288,c),
(372,284,o),
(402,279,o),
(428,264,cs),
(464,242,o),
(471,205,o),
(471,155,cs),
(471,86,o),
(440,25,o),
(365,25,cs),
(290,25,o),
(267,86,o),
(267,155,cs)
);
},
{
closed = 1;
nodes = (
(278,504,o),
(306,553,o),
(365,553,cs),
(423,553,o),
(452,504,o),
(452,436,cs),
(452,384,o),
(438,350,o),
(402,334,c),
(360,343,o),
(321,347,o),
(294,379,cs),
(282,393,o),
(278,415,o),
(278,436,cs)
);
}
);
width = 695;
}
);
},
{
color = 3;
glyphname = nine.osf;
kernLeft = "0";
kernRight = "0";
lastChange = "2022-10-28 16:48:33 +0000";
layers = (
{
layerId = m01;
shapes = (
{
attr = {
fill = "1";
};
closed = 1;
nodes = (
(125,450,o),
(50,381,o),
(50,291,cs),
(50,200,o),
(125,130,o),
(213,130,cs),
(311,130,o),
(379,263,o),
(379,283,cs),
(379,403,o),
(309,450,o),
(213,450,cs)
);
},
{
attr = {
fill = "1";
};
closed = 1;
nodes = (
(289,409,o),
(315,356,o),
(315,318,cs),
(315,259,o),
(324,171,o),
(213,171,cs),
(148,171,o),
(115,213,o),
(115,291,cs),
(115,368,o),
(144,409,o),
(213,409,cs)
);
},
{
closed = 1;
nodes = (
(315,287,l),
(315,106,o),
(248,-28,o),
(147,-92,c),
(152,-127,l),
(265,-82,o),
(379,72,o),
(379,287,c)
);
}
);
width = 608;
}
);
},
{
export = 0;
glyphname = _corner.leftSerif;
kernLeft = "0";
lastChange = "2022-10-28 16:32:19 +0000";
layers = (
{
layerId = m01;
shapes = (
{
closed = 0;
nodes = (
(0,108,l),
(0,23,o),
(-27,13,o),
(-91,13,c),
(-91,-10,l),
(-56,0,o),
(-12,0,o),
(13,0,c)
);
}
);
width = 200;
}
);
},
{
export = 0;
glyphname = _corner.rightSerif;
kernLeft = "0";
lastChange = "2022-10-28 16:32:19 +0000";
layers = (
{
layerId = m01;
shapes = (
{
closed = 0;
nodes = (
(-13,0,l),
(12,0,o),
(63,0,o),
(98,-10,c),
(98,13,l),
(34,13,o),
(0,23,o),
(0,108,c)
);
}
);
width = 200;
}
);
},
{
export = 0;
glyphname = LowerSerifBottomLeft;
lastChange = "2022-10-28 16:32:19 +0000";
layers = (
{
layerId = m01;
shapes = (
{
closed = 1;
nodes = (
(0,108,l),
(0,23,o),
(-12,14,o),
(-76,14,c),
(-76,-6,l),
(-39,2,o),
(-12,0,o),
(13,0,c)
);
}
);
width = 600;
}
);
},
{
export = 0;
glyphname = LowerSerifBottomRight;
kernLeft = "0";
lastChange = "2022-10-28 16:32:19 +0000";
layers = (
{
layerId = m01;
shapes = (
{
closed = 1;
nodes = (
(12,0,o),
(39,2,o),
(76,-6,c),
(76,14,l),
(12,14,o),
(0,23,o),
(0,108,c),
(-13,0,l)
);
}
);
width = 600;
}
);
},
{
export = 0;
glyphname = SerifBottomLeft;
kernLeft = "0";
lastChange = "2022-10-28 16:32:19 +0000";
layers = (
{
layerId = m01;
shapes = (
{
closed = 1;
nodes = (
(0,108,l),
(0,23,o),
(-32,14,o),
(-96,14,c),
(-96,-6,l),
(-59,2,o),
(-12,0,o),
(13,0,c)
);
}
);
width = 200;
}
);
},
{
export = 0;
glyphname = SerifBottomRight;
kernLeft = "0";
lastChange = "2022-10-28 16:32:19 +0000";
layers = (
{
layerId = m01;
shapes = (
{
closed = 1;
nodes = (
(12,0,o),
(59,2,o),
(96,-6,c),
(96,14,l),
(32,14,o),
(0,23,o),
(0,108,c),
(-13,0,l)
);
}
);
width = 200;
}
);
},
{
export = 0;
glyphname = SerifDownEF;
kernLeft = "0";
lastChange = "2022-10-28 16:32:19 +0000";
layers = (
{
layerId = m01;
shapes = (
{
closed = 1;
nodes = (
(115,0,l),
(115,-42,ls),
(115,-76,o),
(116,-150,o),
(120,-151,c),
(100,-151,l),
(99,-87,o),
(91,-42,o),
(0,-42,c),
(0,0,l)
);
}
);
width = 600;
}
);
},
{
export = 0;
glyphname = SerifUpLeft;
kernLeft = "0";
lastChange = "2022-10-28 16:32:19 +0000";
layers = (
{
layerId = m01;
shapes = (
{
closed = 1;
nodes = (
(-8,5,o),
(-39,25,o),
(-41,-15,c),
(-60,-15,l),
(-51,-12,o),
(-67,166,o),
(-77,165,c),
(-57,165,l),
(-57,123,o),
(-37,89,o),
(-22,67,c),
(0,38,l),
(0,0,l)
);
}
);
width = 200;
}
);
},
{
export = 0;
glyphname = SerifUpRight;
kernLeft = "0";
lastChange = "2022-10-28 16:32:19 +0000";
layers = (
{
layerId = m01;
shapes = (
{
closed = 1;
nodes = (
(97,0,l),
(89,17,o),
(105,141,o),
(109,191,c),
(105,191,o),
(89,192,o),
(89,192,c),
(69,75,o),
(72,42,o),
(0,42,c),
(0,0,l)
);
}
